{"title":"White Collar - S04E03 - 720p WEB-DL H.264 {$H@uN}","uid":7477596,"size":422100553,"categoryP":"video","categoryS":"hd___tv_shows","magnet":"?xt=urn:btih:8c7ec18655e58214f59032b9f3ecb1b70975a40f&amp;dn=White+Collar+-+S04E03+-+720p+WEB-DL+H.264+%7B%24H%40uN%7D&amp;tr=udp%3A%2F%2Ftracker.openbittorrent.com%3A80&amp;tr=udp%3A%2F%2Fopen.demonii.com%3A1337&amp;tr=udp%3A%2F%2Ftracker.coppersurfer.tk%3A6969&amp;tr=udp%3A%2F%2Fexodus.desync.com%3A6969","seeders":0,"leechers":4,"uploader":"ShaunGP","files":2,"time":1343332322,"description":"White Collar - S04E03 - Diminishing Returns - 720p WEB-DL H.264 {$H@uN}\n\n\nGeneral Info:\n\nComplete name                  : White Collar - S04E03 - Diminishing Returns - 720p WEB-DL H.264 {$H@uN}.mkv\nOriginal air date              : July 24 2012\nGenre                          : Police procedural, Comedy-Drama\nLanguage                       : English\nEncoder                        : $H@uN\nFile format                    : Matroska\nFile size                      : 402 MiB\nDuration                       : 43mn 15s\nOverall bit rate               : 1 301 Kbps\n\n\nVideo:\n\nFormat                         : AVC\nDuration                       : 43mn 15s\nBit rate                       : 1 200 Kbps\nWidth                          : 1 280 pixels\nHeight                         : 720 pixels\nDisplay aspect ratio           : 16:9\nFrame rate mode                : Variable\nFrame rate                     : 23.976 fps\nColor space                    : YUV\nChroma subsampling             : 4:2:0\nBit depth                      : 8 bits\nScan type                      : Progressive\nBits/(Pixel*Frame)             : 0.054\nStream size                    : 365 MiB (91%)\nWriting library                : x264 core 112\nLaguage                        : English\nSubtitles                      : Seperate .srt file included\n\n\nAudio:\n\nFormat                         : AC-3\nMode extension                 : CM (complete main)\nCodec ID                       : A_AC3\nDuration                       : 43mn 15s\nBit rate mode                  : Constant\nBit rate                       : 96 Kbps\nChannel(s)                     : 2 channels\nChannel positions              : Front: L R\nSampling rate                  : 48.0 KHz\nBit depth                      : 16 bits\nCompression mode               : Lossy\nStream size                    : 29.7 MiB (7%)\nLanguage                       : English\n\nScreen Shots:\n\ni1140.photobucket.com/albums/n566/ShaunGP/ScreenShots2/WhiteCollarS04E03DiminishingReturns720pWEB-DLmkv_snapshot_0858_20120726_2205.jpg\n\ni1140.photobucket.com/albums/n566/ShaunGP/ScreenShots2/WhiteCollarS04E03DiminishingReturns720pWEB-DLmkv_snapshot_0511_20120726_2211.jpg\n\n\nEncoder's Notes:\n\nDo Provide Feedback.\nKeep in Mind, you are charged nothing for Downloading a TORRENT,\nso its your duty to SEED n keep the torrent alive for as long as possible.\nEnjoy..!!! Keep Seeding till 1:1 ratio...","torrent":{"xt":"urn:btih:8c7ec18655e58214f59032b9f3ecb1b70975a40f","amp;dn":"White+Collar+-+S04E03+-+720p+WEB-DL+H.264+%7B%24H%40uN%7D","amp;tr":["udp%3A%2F%2Ftracker.openbittorrent.com%3A80","udp%3A%2F%2Fopen.demonii.com%3A1337","udp%3A%2F%2Ftracker.coppersurfer.tk%3A6969","udp%3A%2F%2Fexodus.desync.com%3A6969"],"infoHash":"8c7ec18655e58214f59032b9f3ecb1b70975a40f","infoHashBuffer":{"type":"Buffer","data":[140,126,193,134,85,229,130,20,245,144,50,185,243,236,177,183,9,117,164,15]},"announce":[],"urlList":[]}}